<?xml version="1.0" encoding="UTF-8"?>
<svg width="271px" height="55px" viewBox="0 0 271 55" version="1.1" xmlns="http://www.w3.org/2000/svg" xmlns:xlink="http://www.w3.org/1999/xlink">
    <title>Logo</title>
    <g id="Page-1" stroke="none" stroke-width="1" fill="none" fill-rule="evenodd">
        <g id="Desktop-HD" transform="translate(-66.000000, -5827.000000)" fill="#DE1E25">
            <g id="Design">
                <g id="12-Footer" transform="translate(0.000000, 5774.000000)">
                    <g id="Logo" transform="translate(66.000000, 53.000000)">
                        <g id="Group-7">
                            <path d="M77.6404624,1.60196178 C84.5652333,0.496115043 91.622679,-0.0150782614 98.6801247,0.00578677139 C132.045708,0.00926427686 165.411291,0.00578677139 198.776874,0.00926427686 C206.925678,0.0370843207 215.078761,-0.0533308217 223.227564,0.054471848 C218.44271,4.11272074 213.473823,8.02491439 208.599093,12.0136132 C205.32074,14.7817075 201.458618,17.6509973 198.32578,20.5268943 L110.64226,20.5161141 C105.22827,20.5752316 99.7843218,20.3248513 94.3960112,20.8742971 C89.3543672,21.0307849 84.3041635,21.9384138 79.7889389,23.8023567 C75.7573356,25.6350021 72.3677074,28.2118337 69.0636758,30.7990977 L38.2788323,54.9747158 C25.5206481,55.0060133 12.7581841,55.0094908 0,54.9781933 C10.7937405,46.1418519 21.7201558,37.4133131 32.5395753,28.5978368 C38.7410543,23.6702115 44.7242618,18.554801 51.1611316,13.828871 C56.4167673,9.9340649 62.1132259,6.32441422 68.6485319,3.95971049 C69.9795602,3.55631986 71.3063086,3.14249671 72.6373369,2.73910607 C74.2893527,2.30789539 75.979887,1.99839741 77.6404624,1.60196178" id="Fill-1"></path>
                            <path d="M230.28444,0.0187401086 C243.853456,0.011789254 257.427153,-0.0299158736 271,0.0395926724 L203.883169,55 C190.35246,54.9339669 176.821751,55.0417051 163.294872,54.9478686 L230.28444,0.0187401086 Z" id="Fill-3"></path>
                            <path d="M96.7348405,24.1571988 C106.606499,23.8759258 116.486723,24.0217711 126.362664,23.987046 C145.485416,23.987046 164.611594,23.9835735 183.7382,23.987046 C187.057304,24.0321886 190.384974,23.8828708 193.695513,24.0773312 C185.811034,30.4181277 178.020775,36.8387919 170.106317,43.1518084 C148.86405,43.0441607 127.6175,43.0927758 106.375232,43.1552809 C102.392307,43.1795885 98.2552044,43.217786 94.5806347,44.6310961 C92.8589832,45.377685 91.3086403,46.3499868 89.9381715,47.4750788 C86.8546165,49.9648658 83.7539307,52.4442353 80.7089202,54.9618024 L45.1666667,55 L78.0450713,28.8520274 C79.1842736,28.1123835 80.4219783,27.4838599 81.7153583,26.9317314 C86.6439069,24.9968509 91.4105689,24.5572316 96.7348405,24.1571988" id="Fill-5"></path>
                        </g>
                    </g>
                </g>
            </g>
        </g>
    </g>
</svg>