<?xml version="1.0" encoding="UTF-8"?>
<svg width="219px" height="55px" viewBox="0 0 219 55" version="1.1" xmlns="http://www.w3.org/2000/svg" xmlns:xlink="http://www.w3.org/1999/xlink">
    <title>Logo</title>
    <g id="Page-1" stroke="none" stroke-width="1" fill="none" fill-rule="evenodd">
        <g id="Desktop-HD" transform="translate(-32.000000, -21.000000)" fill="#FFFFFF">
            <g id="Design">
                <g id="Logo" transform="translate(32.000000, 21.000000)">
                    <g id="Group-7">
                        <path d="M62.7426615,1.60196178 C68.3386941,0.496115043 74.0419436,-0.0150782614 79.745193,0.00578677139 C106.708524,0.00926427686 133.671855,0.00578677139 160.635186,0.00926427686 C167.220382,0.0370843207 173.809035,-0.0533308217 180.394231,0.054471848 C176.527504,4.11272074 172.512056,8.02491439 168.572698,12.0136132 C165.923402,14.7817075 162.802352,17.6509973 160.270649,20.5268943 L89.4120107,20.5161141 C85.0368678,20.5752316 80.6375147,20.3248513 76.2831235,20.8742971 C72.2088797,21.0307849 68.1277188,21.9384138 64.4788842,23.8023567 C61.2208727,25.6350021 58.4816528,28.2118337 55.8116052,30.7990977 L30.9338165,54.9747158 C20.6236972,55.0060133 10.3101193,55.0094908 0,54.9781933 C8.72261686,46.1418519 17.5524507,37.4133131 26.2958192,28.5978368 C31.3073465,23.6702115 36.1424846,18.554801 41.3442355,13.828871 C45.5914098,9.9340649 50.194821,6.32441422 55.4761199,3.95971049 C56.5517479,3.55631986 57.6239173,3.14249671 58.6995453,2.73910607 C60.0345691,2.30789539 61.4007205,1.99839741 62.7426615,1.60196178" id="Fill-1"></path>
                        <path d="M186.097019,0.0187401086 C197.062387,0.011789254 208.031537,-0.0299158736 219,0.0395926724 L164.761676,55 C153.827265,54.9339669 142.892854,55.0417051 131.961538,54.9478686 L186.097019,0.0187401086 Z" id="Fill-3"></path>
                        <path d="M102.115954,23.987046 C117.569395,23.987046 133.025605,23.9835735 148.482162,23.987046 C151.16439,24.0321886 153.85354,23.8828708 156.528846,24.0773312 C150.157256,30.4181277 143.861807,36.8387919 137.465991,43.1518084 C120.29973,43.0441607 103.130009,43.0927758 85.9637487,43.1552809 C82.7450749,43.1795885 79.4018072,43.217786 76.4323211,44.6310961 C75.0410233,45.377685 73.7881632,46.3499868 72.6806625,47.4750788 C70.188786,49.9648658 67.6830658,52.4442353 65.2223377,54.9618024 L36.5,55 L63.0696333,28.8520274 C63.9902432,28.1123835 64.9904548,27.4838599 66.0356585,26.9317314 C70.0185078,24.9968509 73.8705336,24.5572316 78.1731737,24.1571988 C86.1506395,23.8759258 94.1350271,24.0217711 102.115954,23.987046 Z" id="Fill-5"></path>
                    </g>
                </g>
            </g>
        </g>
    </g>
</svg>